#!OML:ASF F:\twosubjects\two\Thursday\Session 1\justin.ASF
:FULLY-SPECIFIED
:DEGREES
268
root 7.41604 18.4854 10.0304 -353.169 -76.6347 363.733
lowerback 18.0442 1.19653 -2.83793
upperback 4.35652 0.770867 -1.04303
thorax -5.44766 0.315644 0.33764
lowerneck -17.6733 -7.63757 -11.2628
upperneck 19.536 -11.7004 16.3813
head 10.9462 -4.56833 5.99688
rclavicle 2.47487e-014 -2.38542e-014
rhumerus 22.6861 -44.0823 -53.6919
rradius 71.0935
rwrist -62.7071
rhand -21.6946 -23.5005
rfingers 7.12502
rthumb 4.70363 -53.4282
lclavicle 2.47487e-014 -2.38542e-014
lhumerus -26.5871 -10.0103 82.5966
lradius 44.9585
lwrist -3.28926
lhand -5.78836 37.8783
lfingers 7.12502
lthumb 20.0358 66.8653
rfemur -43.5221 -14.479 16.6733
rtibia 51.5308
rfoot -1.75331 -12.3488
rtoes -9.25687
lfemur -24.5699 0.367438 -13.7971
ltibia 35.4599
lfoot -9.06703 -9.10221
ltoes -28.7457
269
root 7.27376 18.5101 10.0163 -354.165 -76.8496 364.753
lowerback 17.6645 1.28101 -3.02869
upperback 4.12217 0.875937 -0.977843
thorax -5.50185 0.377915 0.494042
lowerneck -17.8089 -7.74917 -11.2721
upperneck 19.541 -11.8193 16.2829
head 10.9867 -4.62521 5.93714
rclavicle 1.16289e-014 -2.98177e-015
rhumerus 22.6892 -44.1358 -54.59
rradius 71.4258
rwrist -60.6021
rhand -26.6521 -25.9281
rfingers 7.12502
rthumb -0.0841106 -55.9078
lclavicle 1.16289e-014 -2.98177e-015
lhumerus -26.9064 -9.14219 82.2712
lradius 44.5414
lwrist -3.19555
lhand -6.25967 37.7279
lfingers 7.12502
lthumb 19.5827 66.7617
rfemur -43.2461 -14.4283 16.7972
rtibia 49.5319
rfoot -2.1457 -10.8062
rtoes -14.4511
lfemur -23.8245 0.165528 -13.8253
ltibia 35.0145
lfoot -8.40447 -8.97988
ltoes -25.4649
270
root 7.13311 18.531 10.0006 -355.841 -77.0385 366.469
lowerback 17.2652 1.292 -3.24953
upperback 3.87584 0.869939 -1.06843
thorax -5.55235 0.385955 0.526792
lowerneck -17.7758 -7.85112 -11.2728
upperneck 19.5163 -12.0126 16.43
head 11.0158 -4.70289 5.95796
rclavicle 3.95581e-014 -2.24627e-014
rhumerus 22.4751 -44.0168 -55.3944
rradius 71.8195
rwrist -58.8986
rhand -24.6035 -25.5682
rfingers 7.12502
rthumb 1.89451 -55.5395
lclavicle 3.95581e-014 -2.24627e-014
lhumerus -27.2967 -8.24935 81.7177
lradius 44.1323
lwrist -3.2789
lhand -5.9687 37.8175
lfingers 7.12502
lthumb 19.8624 66.8226
rfemur -42.9167 -14.4178 16.731
rtibia 47.4086
rfoot -2.3885 -9.3774
rtoes -19.633
lfemur -23.0305 -0.135727 -14.0018
ltibia 34.5929
lfoot -8.53996 -8.84032
ltoes -24.5342
271
root 6.98614 18.5482 9.98709 -357.691 -77.1579 368.377
lowerback 16.7429 1.30541 -3.40438
upperback 3.69321 0.884859 -1.16881
thorax -5.46724 0.400606 0.509938
lowerneck -17.6944 -8.0471 -11.2285
upperneck 19.2892 -12.3082 16.5307
head 10.972 -4.83426 5.92796
rclavicle -1.33186e-014 -3.27995e-014
rhumerus 22.3194 -44.1149 -56.2284
rradius 72.1022
rwrist -56.9189
rhand -23.8467 -25.0136
rfingers 7.12502
rthumb 2.62543 -54.9772
lclavicle -1.33186e-014 -3.27995e-014
lhumerus -27.6346 -7.74837 81.3025
lradius 43.7447
lwrist -3.03982
lhand -6.21928 37.8086
lfingers 7.12502
lthumb 19.6216 66.8384
rfemur -42.5091 -14.549 16.6512
rtibia 45.1218
rfoot -2.47713 -8.06721
rtoes -22.435
lfemur -22.2925 -0.324398 -14.2468
ltibia 34.3168
lfoot -8.60895 -8.87626
ltoes -23.9353
272
root 6.83332 18.5656 9.97072 -357.555 -77.1294 368.276
lowerback 16.1283 1.36631 -3.2974
upperback 3.5296 1.03847 -0.916292
thorax -5.31746 0.481965 0.692181
lowerneck -17.5438 -8.35707 -11.6191
upperneck 18.9401 -12.634 16.6799
head 10.9096 -5.00995 5.98319
rclavicle 3.37934e-015 9.93923e-016
rhumerus 21.9292 -44.2416 -56.3676
rradius 72.4059
rwrist -55.3725
rhand -20.6236 -24.6999
rfingers 7.12502
rthumb 5.73776 -54.6022
lclavicle 3.37934e-015 9.93923e-016
lhumerus -28.0058 -7.70448 81.441
lradius 43.5486
lwrist -2.10063
lhand -7.28782 38.3783
lfingers 7.12502
lthumb 18.594 67.5096
rfemur -42.0272 -14.7373 17.0689
rtibia 42.7979
rfoot -2.77009 -7.04338
rtoes -21.9341
lfemur -21.6387 -0.471081 -13.9909
ltibia 34.0708
lfoot -8.102 -8.96806
ltoes -22.2149
273
root 6.67967 18.5564 9.94932 -356.201 -77.098 366.757
lowerback 15.7015 1.44526 -2.83751
upperback 3.40049 1.25694 -0.709089
thorax -5.22655 0.589115 0.612575
lowerneck -17.229 -8.59139 -11.8797
upperneck 18.4539 -12.9556 17.0802
head 10.7815 -5.16515 6.11086
rclavicle -7.15625e-015 3.28492e-014
rhumerus 20.7514 -44.0985 -55.7343
rradius 72.8747
rwrist -54.6872
rhand -23.5654 -24.7562
rfingers 7.12502
rthumb 2.89708 -54.7163
lclavicle -7.15625e-015 3.28492e-014
lhumerus -28.3303 -7.81258 81.3248
lradius 43.3526
lwrist -1.42655
lhand -7.90879 38.8093
lfingers 7.12502
lthumb 17.9966 67.9967
rfemur -41.4447 -14.9818 18.0631
rtibia 40.547
rfoot -2.57144 -6.39583
rtoes -25.9817
lfemur -20.8441 -0.352715 -13.4982
ltibia 33.7186
lfoot -8.13223 -8.82041
ltoes -22.3785
274
root 6.52966 18.5404 9.92982 -356.731 -77.1934 367.073
lowerback 15.3833 1.49855 -2.74099
upperback 3.2958 1.35755 -0.737539
thorax -5.16531 0.640302 0.512628
lowerneck -17.0446 -8.71651 -11.7741
upperneck 18.1624 -13.207 17.3312
head 10.6998 -5.26844 6.13546
rclavicle -2.83268e-015 1.65737e-014
rhumerus 19.4925 -43.618 -55.327
rradius 73.531
rwrist -54.1542
rhand -24.3138 -24.2382
rfingers 7.12502
rthumb 2.17427 -54.2068
lclavicle -2.83268e-015 1.65737e-014
lhumerus -28.5767 -7.17261 80.8008
lradius 42.9425
lwrist -1.60658
lhand -8.03309 38.8275
lfingers 7.12502
lthumb 17.877 68.0258
rfemur -40.8418 -15.4378 18.7408
rtibia 38.4673
rfoot -1.89921 -5.68496
rtoes -31.6549
lfemur -19.8786 -0.242425 -13.5225
ltibia 33.219
lfoot -8.27224 -8.45275
ltoes -24.1869
275
root 6.38513 18.5597 9.90339 -358.637 -77.2767 368.897
lowerback 15.0311 1.49215 -3.21254
upperback 3.14265 1.2984 -0.672606
thorax -5.14594 0.62294 0.863429
lowerneck -16.9314 -8.79298 -11.9018
upperneck 17.9981 -13.2755 17.3688
head 10.6433 -5.31541 6.15588
rclavicle -1.81857e-014 2.51214e-014
rhumerus 18.7341 -42.9629 -55.4759
rradius 74.4914
rwrist -53.4983
rhand -25.5129 -24.0141
rfingers 7.12502
rthumb 1.01619 -53.9914
lclavicle -1.81857e-014 2.51214e-014
lhumerus -28.8971 -6.05155 80.3682
lradius 42.5221
lwrist -1.68035
lhand -8.17256 39.2875
lfingers 7.12502
lthumb 17.7428 68.498
rfemur -40.1526 -15.3302 18.521
rtibia 36.5694
rfoot -1.43956 -5.86366
rtoes -29.3783
lfemur -18.9292 -0.229531 -13.8439
ltibia 32.628
lfoot -8.1972 -8.30412
ltoes -26.2845
276
root 6.23764 18.5816 9.86736 -359.864 -77.2235 370.082
lowerback 14.611 1.42693 -3.62937
upperback 2.95375 1.18537 -0.48375
thorax -5.12443 0.581197 1.32424
lowerneck -16.6442 -8.88418 -12.199
upperneck 17.6921 -13.2996 17.373
head 10.5041 -5.36806 6.20054
rclavicle 8.59744e-015 4.13969e-014
rhumerus 18.2059 -42.4461 -55.715
rradius 75.1779
rwrist -52.0466
rhand -23.0277 -24.8081
rfingers 7.12502
rthumb 3.41631 -54.7605
lclavicle 8.59744e-015 4.13969e-014
lhumerus -29.3468 -5.12449 80.0261
lradius 42.2393
lwrist -1.26845
lhand -8.1963 39.8024
lfingers 7.12502
lthumb 17.72 69.0149
rfemur -39.619 -15.1295 18.4184
rtibia 34.8851
rfoot -0.935967 -6.87503
rtoes -26.0512
lfemur -18.0363 -0.0875127 -13.9626
ltibia 31.9998
lfoot -8.36424 -8.42844
ltoes -26.8255
277
root 6.0884 18.5866 9.83475 -361.518 -77.052 371.845
lowerback 13.9621 1.46811 -4.01311
upperback 2.83071 1.22589 -0.394811
thorax -4.91136 0.609693 1.63573
lowerneck -16.5264 -9.18209 -12.4815
upperneck 17.4162 -13.6595 17.5425
head 10.4826 -5.54828 6.24001
rclavicle -1.49089e-016 4.77083e-015
rhumerus 17.6571 -42.5353 -55.7714
rradius 75.4042
rwrist -50.1718
rhand -21.5591 -25.2346
rfingers 7.12502
rthumb 4.83453 -55.1594
lclavicle -1.49089e-016 4.77083e-015
lhumerus -29.5535 -4.82908 79.9172
lradius 42.0254
lwrist -0.763799
lhand -8.15834 39.8531
lfingers 7.12502
lthumb 17.7565 69.0624
rfemur -39.4996 -15.331 18.396
rtibia 33.5538
rfoot -0.398916 -8.19424
rtoes -25.3985
lfemur -17.3154 -0.0158253 -14.2593
ltibia 31.3593
lfoot -8.08671 -8.45724
ltoes -24.9179
278
root 5.93966 18.5844 9.8045 -364.002 -76.7403 374.568
lowerback 13.2003 1.54218 -4.62587
upperback 2.70635 1.2857 -0.366475
thorax -4.64184 0.648716 2.01119
lowerneck -16.4679 -9.42941 -12.8433
upperneck 17.2731 -13.9786 17.8369
head 10.5329 -5.69781 6.34983
rclavicle 1.2424e-014 7.7526e-015
rhumerus 16.6812 -42.4302 -55.3904
rradius 76.2609
rwrist -50.1803
rhand -22.7305 -25.8475
rfingers 7.12502
rthumb 3.70339 -55.7951
lclavicle 1.2424e-014 7.7526e-015
lhumerus -29.6051 -4.66869 79.8415
lradius 41.7142
lwrist -0.682549
lhand -7.79932 39.0532
lfingers 7.12502
lthumb 18.1019 68.2308
rfemur -39.4513 -15.8922 18.2591
rtibia 32.4606
rfoot 0.0921684 -9.70526
rtoes -26.1289
lfemur -16.7445 -0.270378 -14.7638
ltibia 30.8699
lfoot -7.21799 -8.38189
ltoes -19.7104
